<?xml version="1.0" encoding="UTF-8" standalone="no"?>
<!-- Created with Inkscape (http://www.inkscape.org/) -->

<svg
   version="1.1"
   id="svg1"
   width="320"
   height="320"
   viewBox="0 0 320 320"
   sodipodi:docname="icon.svg"
   inkscape:version="1.4 (e7c3feb, 2024-10-09)"
   xmlns:inkscape="http://www.inkscape.org/namespaces/inkscape"
   xmlns:sodipodi="http://sodipodi.sourceforge.net/DTD/sodipodi-0.dtd"
   xmlns="http://www.w3.org/2000/svg"
   xmlns:svg="http://www.w3.org/2000/svg">
  <defs
     id="defs1" />
  <sodipodi:namedview
     id="namedview1"
     pagecolor="#000000"
     bordercolor="#000000"
     borderopacity="1"
     inkscape:showpageshadow="2"
     inkscape:pageopacity="0.0"
     inkscape:pagecheckerboard="true"
     inkscape:deskcolor="#000000"
     inkscape:zoom="1.375"
     inkscape:cx="304.72727"
     inkscape:cy="162.18182"
     inkscape:window-width="1715"
     inkscape:window-height="1059"
     inkscape:window-x="205"
     inkscape:window-y="21"
     inkscape:window-maximized="1"
     inkscape:current-layer="g1" />
  <g
     inkscape:groupmode="layer"
     inkscape:label="Image"
     id="g1"
     style="display:inline">
    <g
       id="g58">
      <path
         style="display:inline;fill:#c4c0b7"
         d="m 159.86599,313.24605 -0.34599,-0.034 -4,-1.84266 -4,-1.84266 -5.76,-2.5715 -5.76,-2.5715 -8.48,-3.75445 -8.48,-3.75445 -1.6,-0.72169 -1.6,-0.7217 -8.48,-3.74556 -8.48,-3.74556 -5.92,-2.65395 -5.92,-2.65395 -4.16,-1.82964 -4.16,-1.82965 -4.16,-1.852 -4.16,-1.852 -5.92,-2.62917 -5.92,-2.62917 -4.16,-1.84911 -4.16,-1.84911 -4.48,-1.99884 -4.48,-1.99884 L 44,261.76 l -1.28,-0.55493 -4.32,-1.92623 -4.32,-1.92623 -4.48,-1.98838 -4.48,-1.98838 -1.946901,-0.88626 -1.946901,-0.88627 L 21.013099,216.94866 20.8,182.294 20.843856,138.267 20.887712,94.24 21.083856,81.311213 21.28,68.382427 l 4.48,-2.000501 4.48,-2.000501 1.44,-0.64068 1.44,-0.640681 4.64,-2.072962 4.64,-2.072961 4.16,-1.827812 4.16,-1.827813 L 52,54.71204 53.28,54.125564 56.64,52.64 60,51.154436 l 1.28,-0.586476 1.28,-0.586476 4.16,-1.827813 4.16,-1.827812 4.64,-2.067798 4.64,-2.067799 1.28,-0.584389 1.28,-0.584389 4.16,-1.827294 4.16,-1.827294 4.24,-1.883448 4.24,-1.883448 4.4,-1.962536 4.4,-1.962537 1.28,-0.554927 1.28,-0.554927 4.32,-1.926229 4.32,-1.926229 4.48,-1.998844 4.48,-1.998844 1.28,-0.554927 1.28,-0.554927 4.32,-1.926229 4.32,-1.926229 4.32,-1.922894 4.32,-1.922894 4.16,-1.829423 4.16,-1.8294224 1.64245,-0.7556006 1.64245,-0.7556007 12.27755,5.4417917 12.27755,5.441791 3.84,1.717227 3.84,1.717226 5.92,2.627177 5.92,2.627178 4.16,1.850829 4.16,1.850829 5.92,2.629171 5.92,2.629171 4.24,1.885414 4.24,1.885415 4.24,1.881218 4.24,1.881218 5.92,2.633178 5.92,2.633178 4.16,1.849052 4.16,1.849052 4.16,1.839972 4.16,1.839972 1.28,0.57615 1.28,0.57615 4.96,2.207613 4.96,2.207613 8.56,3.795608 8.56,3.795608 v 91.460688 91.46068 l -1.84,0.85149 -1.84,0.85149 -1.76,0.8018 -1.76,0.8018 -0.64,0.22901 -0.64,0.22901 -1.92,0.87016 -1.92,0.87015 -0.55566,0.28407 -0.55566,0.28407 h -0.44516 -0.44516 l -0.39714,0.47853 -0.39714,0.47853 -1.32204,0.37668 -1.32204,0.37667 -0.48,0.37209 -0.48,0.3721 -1.12,0.41146 -1.12,0.41146 -1.76,0.818 -1.76,0.81801 -0.8,0.30032 -0.8,0.30032 -0.48,0.28495 -0.48,0.28495 -0.48,0.18698 -0.48,0.18698 -0.64,0.2531 -0.64,0.2531 -2.78101,1.31788 -2.78101,1.31789 H 263.85899 263.36 v 0.25572 0.25571 l -1.2,0.39887 -1.2,0.39886 -1.6,0.74742 -1.6,0.74742 -1.12,0.48413 -1.12,0.48413 -1.6,0.70498 -1.6,0.70498 -1.12,0.48071 -1.12,0.48072 -1.76,0.8024 -1.76,0.8024 -0.8,0.32286 -0.8,0.32286 -0.48,0.28495 -0.48,0.28495 -0.48,0.18698 -0.48,0.18698 -0.64,0.25676 -0.64,0.25676 -1.92,0.87562 -1.92,0.87562 -0.8,0.31569 -0.8,0.31569 -0.48,0.28495 -0.48,0.28495 -0.48,0.18698 -0.48,0.18698 -0.64,0.26517 -0.64,0.26517 -1.92,0.85088 -1.92,0.85088 -1.76,0.81633 -1.76,0.81633 -0.64,0.25849 -0.64,0.2585 -0.72,0.20167 -0.72,0.20168 v 0.29843 0.29844 h -0.48434 -0.48434 l -0.55566,0.28458 -0.55566,0.28459 -1.76,0.79676 -1.76,0.79676 -0.8,0.23538 -0.8,0.23537 -1.12,0.57056 -1.12,0.57056 -1.76,0.80121 -1.76,0.8012 -1.92,0.85733 -1.92,0.85733 -0.64,0.25996 -0.64,0.25996 -1.76,0.80313 -1.76,0.80313 -1.6,0.7022 -1.6,0.70221 -1.12,0.47552 -1.12,0.47552 -0.48,0.29541 -0.48,0.2954 -0.48,0.18698 -0.48,0.18698 -0.64,0.26217 -0.64,0.26216 -1.6,0.70865 -1.6,0.70865 -2.08,0.9481 -2.08,0.9481 -0.64,0.2539 -0.64,0.2539 -1.70953,0.83817 -1.70953,0.83817 h -0.34944 -0.34944 l -1.30103,0.61513 -1.30103,0.61513 -4.8,2.13745 -4.8,2.13745 -3.81401,1.72742 -3.81401,1.72742 z"
         id="path64" />
      <path
         style="display:inline;fill:#ed848f"
         d="m 159.88092,312.93834 -0.36092,-0.0217 -0.8,-0.35734 -0.8,-0.35735 -4.48,-1.98589 -4.48,-1.98589 -5.92,-2.62969 -5.92,-2.62969 -4.16,-1.8526 -4.16,-1.8526 -4.48,-1.98603 -4.48,-1.98604 -1.28,-0.56424 -1.28,-0.56425 -4.32,-1.9337 -4.32,-1.9337 -5.6,-2.46627 -5.6,-2.46628 -4.64,-2.07828 -4.64,-2.07829 -4.16,-1.85141 -4.16,-1.85141 -14.24,-6.30392 -14.24,-6.30391 -4.32,-1.93149 -4.32,-1.93148 -1.28,-0.56425 -1.28,-0.56424 -4.48,-1.98655 -4.48,-1.98656 -4.64,-2.08088 -4.64,-2.08088 -0.4,-0.32497 -0.4,-0.32496 v -22.52082 -22.52082 h 0.251509 0.251509 l 8.276189,3.68 8.276188,3.68 H 38.287698 38.4 V 190.72 168 h 0.197854 0.197854 l 8.440045,3.74083 8.440045,3.74083 0.0821,22.89616 0.0821,22.89616 8.450514,3.76301 8.450513,3.76301 H 72.850514 72.96 v -57.05075 -57.05076 l -6,-2.67842 -6,-2.67842 -2.365066,-1.07082 L 56.229868,107.2 h -0.272802 -0.272802 l -0.08213,22.70508 -0.08213,22.70507 -2.4,-1.0719 -2.4,-1.07191 -4.48,-1.98578 -4.48,-1.98578 -1.68,-0.76305 -1.68,-0.76305 V 122.25171 99.534754 L 37.68,99.081998 36.96,98.629243 29.043146,95.154621 21.126291,91.68 21.123146,80.279182 21.12,68.878365 l 0.4,-0.331299 0.4,-0.331298 2.72,-1.179748 2.72,-1.179748 4.24,-1.888136 4.24,-1.888136 4.4,-1.962536 4.4,-1.962537 L 45.92,57.6 47.2,57.045073 51.6,55.082536 56,53.12 60.24,51.234585 64.48,49.349171 70.4,46.72 l 5.92,-2.629171 4.16,-1.852001 4.16,-1.852001 4.16,-1.827331 4.16,-1.82733 1.28,-0.583301 1.28,-0.583301 3.36,-1.485564 3.36,-1.485564 1.28,-0.586476 1.28,-0.586476 4.16,-1.827813 4.16,-1.827812 4.64,-2.067798 4.64,-2.067799 1.28,-0.584389 1.28,-0.584389 4.16,-1.827294 4.16,-1.827294 4.16,-1.847141 4.16,-1.84714 4.48,-1.998844 4.48,-1.998844 1.28,-0.557529 1.28,-0.55753 3.44,-1.5327775 3.44,-1.5327775 3.44,1.5327775 3.44,1.5327775 1.28,0.55753 1.28,0.557529 4.4,1.962537 4.4,1.962536 4.24,1.881218 4.24,1.881218 5.92,2.633178 5.92,2.633178 4.16,1.849052 4.16,1.849052 4.16,1.827294 4.16,1.827294 1.28,0.584389 1.28,0.584389 4.64,2.070936 4.64,2.070937 4.16,1.831003 4.16,1.831003 4.64,2.067798 4.64,2.067799 1.28,0.584389 1.28,0.584389 4.16,1.827294 4.16,1.827294 4.24,1.883448 4.24,1.883448 4.4,1.962536 4.4,1.962537 1.28,0.554927 1.28,0.554927 4.32,1.926229 4.32,1.926229 4.48,1.996219 4.48,1.996219 0.96,0.419455 0.96,0.419455 2.16,0.960565 2.16,0.960564 v 91.170478 91.17047 l -0.56,0.49024 -0.56,0.49024 -1.28,0.42558 -1.28,0.42557 -0.48,0.38041 -0.48,0.38041 -1.51619,0.50828 -1.5162,0.50828 -0.5638,0.31263 -0.56381,0.31262 -1.92,0.84069 -1.92,0.84068 -2.33695,1.09178 -2.33695,1.09178 h -0.21798 -0.21798 l -1.60507,0.78044 -1.60507,0.78044 -1.92,0.86096 -1.92,0.86095 -0.64,0.23721 -0.64,0.23721 -1.92,0.86988 -1.92,0.86988 -0.55566,0.29151 -0.55566,0.29152 h -0.37914 -0.37915 l -0.50519,0.4273 -0.5052,0.4273 -1.12,0.41146 -1.12,0.41146 -1.6,0.74086 -1.6,0.74087 -1.92,0.87714 -1.92,0.87714 -0.64,0.22901 -0.64,0.22901 -1.92,0.86819 -1.92,0.86818 -1.6,0.77104 -1.6,0.77105 -0.25334,-0.005 -0.25335,-0.005 -2.14665,0.98702 -2.14666,0.98702 -1.44,0.6418 -1.44,0.6418 -0.8,0.32826 -0.8,0.32827 -0.48,0.28495 -0.48,0.28495 -0.48,0.18698 -0.48,0.18698 -0.64,0.25676 -0.64,0.25676 -1.92,0.87562 -1.92,0.87562 -0.64,0.23721 -0.64,0.23721 -1.92,0.86961 -1.92,0.8696 -0.48,0.29383 -0.48,0.29382 -0.48,0.18698 -0.48,0.18698 -0.64,0.25676 -0.64,0.25676 -1.92,0.87016 -1.92,0.87015 -0.55566,0.28407 -0.55566,0.28407 h -0.44516 -0.44516 l -0.39836,0.48 -0.39836,0.48 h -0.49553 -0.49553 l -2.10529,0.98184 -2.10529,0.98183 -1.86182,0.93817 -1.86183,0.93816 h -0.31152 -0.31152 l -2.14665,0.98702 -2.14666,0.98702 -1.44,0.6418 -1.44,0.6418 -0.64,0.25764 -0.64,0.25765 -1.92,0.8592 -1.92,0.85919 -1.76,0.80856 -1.76,0.80857 -0.64,0.22901 -0.64,0.22901 -1.76,0.81585 -1.76,0.81585 -1.92,0.87684 -1.92,0.87685 -0.55566,0.28407 -0.55566,0.28407 h -0.44516 -0.44516 l -0.39836,0.48 -0.39836,0.48 h -0.44555 -0.44554 l -4.39527,1.95281 -4.39528,1.95282 -4.16,1.86018 -4.16,1.86018 -1.23908,0.507 -1.23908,0.50701 z m 0.0204,-45.533 0.0735,-0.0735 0.15127,-56.86018 0.15128,-56.86018 -0.37871,-0.24324 -0.3787,-0.24324 -8.11653,-3.60248 -8.11652,-3.60249 h -0.28435 -0.28436 l 0.0809,57.01388 0.0809,57.01387 8.4739,3.76556 8.4739,3.76556 z m -35.01724,-15.59583 0.5641,0.0305 -0.0841,-11.25903 -0.0841,-11.25904 -6.72,-2.97329 -6.72,-2.97328 -2,-0.96469 -2,-0.96469 V 210.24299 199.04 h 0.44146 0.44146 l 7.91708,3.52 7.91708,3.52 h 0.44555 0.44556 l -0.0841,-11.24672 -0.0841,-11.24673 -8.72,-3.86904 -8.72,-3.86905 V 164.56423 153.28 h 0.35654 0.35655 l 8.28799,3.68 8.28799,3.68 h 0.15547 0.15546 v -11.30073 -11.30073 l -1.2,-0.57362 -1.2,-0.57363 -15.52,-6.88165 -15.52,-6.88165 -0.72,-0.27608 -0.72,-0.27607 v 57.0651 57.06509 l 16.88,7.5365 16.88,7.53649 z"
         id="path63" />
      <path
         style="display:inline;fill:#8a9093"
         d="m 160.04092,312.93474 -0.20092,-0.0253 -0.48,-0.17624 -0.48,-0.17623 -1.6,-0.73358 -1.6,-0.73358 -3.36,-1.4877 -3.36,-1.4877 -1.28,-0.58648 -1.28,-0.58648 -4.16,-1.82729 -4.16,-1.82729 -4.32,-1.91921 -4.32,-1.91921 -1.6,-0.72287 -1.6,-0.72287 -2.72,-1.20264 -2.72,-1.20264 -1.28,-0.55619 -1.28,-0.5562 -4.48,-1.9983 -4.48,-1.99829 -1.6,-0.72287 -1.6,-0.72287 -2.72,-1.20264 -2.72,-1.20264 -1.28,-0.55619 -1.28,-0.5562 -4.32,-1.92623 -4.32,-1.92623 -4.48,-1.99621 -4.48,-1.99622 -0.96,-0.42165 -0.96,-0.42166 -3.36,-1.49019 -3.36,-1.49019 -1.28,-0.56571 -1.28,-0.56571 -4.32,-1.92972 -4.32,-1.92972 -4.48,-1.98603 -4.48,-1.98604 -1.28,-0.56551 -1.28,-0.56551 -2.72,-1.20264 -2.72,-1.20264 -1.6,-0.72578 -1.6,-0.72578 -4.16,-1.82677 -4.16,-1.82676 -1.28,-0.5833 -1.28,-0.58331 -3.36,-1.47546 -3.36,-1.47547 -0.72,-0.36139 -0.72,-0.36139 V 228.9059 206.39997 h 0.260981 0.260982 l 7.929125,3.52 7.929125,3.52 h 0.287762 0.287761 l 0.08213,-22.69059 0.08213,-22.69058 8.48,3.76312 8.48,3.76312 0.0821,22.87706 0.0821,22.87706 0.877896,0.40724 0.877896,0.40724 7.481952,3.32316 7.481952,3.32317 H 72.841952 73.28 v -57.08129 -57.08129 l -8.72,-3.86521 -8.72,-3.86522 -0.08213,22.70651 -0.08213,22.7065 H 55.404608 55.133472 L 51.166736,150.53862 47.2,148.75724 l -0.96,-0.41998 -0.96,-0.41998 -2.56,-1.13825 -2.56,-1.13824 -0.87788,-0.33167 -0.877879,-0.33167 -0.08212,-22.9227 L 38.24,99.132049 33.28,96.912833 28.32,94.693616 24.8,93.094838 21.28,91.49606 21.368032,80.30803 21.456064,69.12 h 0.285665 0.285665 L 69.813697,90.350852 117.6,111.5817 l 12.3799,5.48915 12.37991,5.48915 0.58009,-0.0127 0.5801,-0.0128 8.0568,-3.58725 8.05681,-3.58725 0.0479,-0.29576 0.0479,-0.29576 -8.05166,-3.56326 -8.05166,-3.56327 -0.0352,-0.30097 -0.0352,-0.30098 8.22218,-3.6433 L 160,99.753406 v -0.255139 -0.255139 l -0.72,-0.22199 -0.72,-0.22199 -4.48,-2.00452 -4.48,-2.00452 -3.04,-1.343434 -3.04,-1.343434 -0.304,-0.29162 -0.304,-0.29162 h 0.36904 0.36904 l 7.93496,-3.540132 7.93496,-3.540132 0.24795,-0.243818 0.24795,-0.243818 -8.2068,-3.65605 -8.2068,-3.65605 0.10503,-0.32 0.10503,-0.32 7.21382,-3.21111 7.21382,-3.211109 1.00806,-0.414482 1.00805,-0.414481 2.35195,1.029418 2.35194,1.029418 1.6,0.714242 1.6,0.714242 4.48,2.007277 4.48,2.007276 0.11459,0.09591 0.11458,0.09591 -1.23458,0.511809 -1.23459,0.51181 -7.29638,3.234557 -7.29638,3.234557 0.25638,0.254344 0.25638,0.254343 8.27965,3.665559 8.27964,3.665559 -0.68667,0.367498 -0.68668,0.367499 -7.59297,3.363609 -7.59297,3.363609 -0.22473,0.222096 -0.22472,0.222097 3.90472,1.728683 3.90473,1.72869 4.32,1.92531 4.32,1.92531 0.23183,0.19311 0.23184,0.19311 -8.27583,3.67216 -8.27583,3.67217 -0.0584,0.29033 -0.0584,0.29033 8.10235,3.61558 8.10236,3.61557 0.58632,0.0141 0.58631,0.0141 26.93369,-11.96478 L 231.84,98.630431 265.05854,83.875216 298.27708,69.12 h 0.46146 0.46146 v 90.9904 90.99041 l -0.56,0.49024 -0.56,0.49024 -1.28,0.42558 -1.28,0.42557 -0.48,0.38041 -0.48,0.38041 -1.51619,0.50828 -1.5162,0.50828 -0.5638,0.31263 -0.56381,0.31262 -1.92,0.84069 -1.92,0.84068 -2.33695,1.09178 -2.33695,1.09178 h -0.21798 -0.21798 l -1.60507,0.78044 -1.60507,0.78044 -1.92,0.86096 -1.92,0.86095 -0.64,0.23721 -0.64,0.23721 -1.92,0.86988 -1.92,0.86988 -0.55566,0.29151 -0.55566,0.29152 h -0.37914 -0.37915 l -0.50519,0.4273 -0.5052,0.4273 -1.12,0.41146 -1.12,0.41146 -1.76,0.82464 -1.76,0.82463 -1.76,0.79337 -1.76,0.79337 -0.64,0.22901 -0.64,0.22901 -1.92,0.86819 -1.92,0.86818 -1.6,0.77104 -1.6,0.77105 -0.25334,-0.005 -0.25335,-0.005 -2.14665,0.98702 -2.14666,0.98702 -1.44,0.6418 -1.44,0.6418 -0.8,0.32826 -0.8,0.32827 -0.48,0.28495 -0.48,0.28495 -0.48,0.18698 -0.48,0.18698 -0.64,0.25676 -0.64,0.25676 -1.92,0.87562 -1.92,0.87562 -0.64,0.23721 -0.64,0.23721 -1.92,0.86961 -1.92,0.8696 -0.48,0.29383 -0.48,0.29382 -0.48,0.18698 -0.48,0.18698 -0.64,0.25676 -0.64,0.25676 -1.92,0.87016 -1.92,0.87015 -0.55566,0.28407 -0.55566,0.28407 h -0.44516 -0.44516 l -0.39836,0.48 -0.39836,0.48 h -0.49553 -0.49553 l -2.10529,0.98184 -2.10529,0.98183 -1.86182,0.93817 -1.86183,0.93816 h -0.31152 -0.31152 l -2.14665,0.98702 -2.14666,0.98702 -1.44,0.6418 -1.44,0.6418 -0.64,0.25764 -0.64,0.25765 -1.92,0.8592 -1.92,0.85919 -1.76,0.80856 -1.76,0.80857 -0.64,0.22901 -0.64,0.22901 -1.76,0.81585 -1.76,0.81585 -1.92,0.87684 -1.92,0.87685 -0.55566,0.28407 -0.55566,0.28407 h -0.44516 -0.44516 l -0.39836,0.48 -0.39836,0.48 h -0.44555 -0.44554 l -4.39527,1.95281 -4.39528,1.95282 -4.16,1.86018 -4.16,1.86018 -1.23908,0.507 -1.23908,0.50701 z M 159.6,267.48356 l 0.4,0.0364 0.0516,-22.8 0.0516,-22.8 0.0545,-34.14827 0.0545,-34.14827 -0.18613,-0.26096 -0.18614,-0.26096 -2.24,-1.00263 -2.24,-1.00264 -1.44,-0.635 -1.44,-0.635 -4.72765,-2.11313 -4.72764,-2.11314 H 142.87228 142.72 v 57.21998 57.21999 l 8.24,3.70358 8.24,3.70358 z m -34.56,-15.35671 0.4,0.0332 v -11.46296 -11.46296 l -1.52,-0.67446 -1.52,-0.67446 -3.36,-1.4875 -3.36,-1.4875 -1.6,-0.71973 -1.6,-0.71973 -2.1514,-0.93535 -2.15139,-0.93535 -0.009,-11.28 -0.009,-11.28 h 0.10562 0.10561 l 8.26185,3.68 8.26184,3.68 h 0.27254 0.27254 l -0.008,-11.44 -0.008,-11.44 -1.19175,-0.53642 -1.19174,-0.53641 -3.36,-1.46986 -3.36,-1.46985 -0.48,-0.2643 -0.48,-0.2643 -3.6,-1.5351 -3.6,-1.53509 v -11.3022 -11.3022 l 2.48,1.06672 2.48,1.06672 2.96,1.32115 2.96,1.32114 2.88044,1.28 2.88044,1.28 h 0.3236 0.3236 l -0.084,-11.43784 -0.084,-11.43785 -17.09362,-7.60215 -17.093628,-7.60216 H 90.666176 90.24 v 56.97488 56.97489 l 0.88,0.50265 0.88,0.50265 16.32,7.28931 16.32,7.28931 z"
         id="path61" />
      <path
         style="display:inline;fill:#dc5d67"
         d="m 160.05752,312.93474 -0.21752,-0.0253 -0.48,-0.17624 -0.48,-0.17623 -1.6,-0.73358 -1.6,-0.73358 -3.36,-1.4877 -3.36,-1.4877 -1.28,-0.58648 -1.28,-0.58648 -4.16,-1.82729 -4.16,-1.82729 -4.32,-1.91921 -4.32,-1.91921 -1.6,-0.72287 -1.6,-0.72287 -2.72,-1.20264 -2.72,-1.20264 -1.28,-0.55619 -1.28,-0.5562 -4.48,-1.9983 -4.48,-1.99829 -1.6,-0.72287 -1.6,-0.72287 -2.72,-1.20264 -2.72,-1.20264 -1.28,-0.55619 -1.28,-0.5562 -4.32,-1.92623 -4.32,-1.92623 -4.48,-1.99621 -4.48,-1.99622 -0.96,-0.42165 -0.96,-0.42166 -3.36,-1.49019 -3.36,-1.49019 -1.28,-0.56571 -1.28,-0.56571 -4.32,-1.92972 -4.32,-1.92972 -4.48,-1.98603 -4.48,-1.98604 -1.28,-0.56551 -1.28,-0.56551 -2.72,-1.20264 -2.72,-1.20264 -1.6,-0.72578 -1.6,-0.72578 -4.16,-1.82677 -4.16,-1.82676 -1.28,-0.5833 -1.28,-0.58331 -3.36,-1.47546 -3.36,-1.47547 -0.72,-0.36139 -0.72,-0.36139 V 228.9059 206.39997 h 0.260981 0.260982 l 7.929125,3.52 7.929125,3.52 h 0.287762 0.287761 l 0.08213,-22.69059 0.08213,-22.69058 8.48,3.76312 8.48,3.76312 0.0821,22.87706 0.0821,22.87706 0.877896,0.40724 0.877896,0.40724 7.481952,3.32316 7.481952,3.32317 H 72.841952 73.28 v -57.08129 -57.08129 l -8.72,-3.86521 -8.72,-3.86522 -0.08213,22.70651 -0.08213,22.7065 H 55.404608 55.133472 L 51.166736,150.53862 47.2,148.75724 l -0.96,-0.41998 -0.96,-0.41998 -2.56,-1.13825 -2.56,-1.13824 -0.87788,-0.33167 -0.877879,-0.33167 -0.08212,-22.9227 L 38.24,99.132049 33.28,96.912833 28.32,94.693616 24.8,93.094838 21.28,91.49606 21.368032,80.30803 21.456064,69.12 h 0.285665 0.285665 L 69.813697,90.350852 117.6,111.5817 l 12.3799,5.48915 12.37991,5.48915 0.58009,-0.0127 0.5801,-0.0128 8.0568,-3.58725 8.05681,-3.58725 0.0479,-0.29576 0.0479,-0.29576 -8.05166,-3.56326 -8.05166,-3.56327 -0.0352,-0.30097 -0.0352,-0.30098 8.22218,-3.6433 L 160,99.753406 v -0.255139 -0.255139 l -0.72,-0.22199 -0.72,-0.22199 -4.48,-2.00452 -4.48,-2.00452 -3.04,-1.343434 -3.04,-1.343434 -0.304,-0.29162 -0.304,-0.29162 h 0.36904 0.36904 l 7.93496,-3.540132 7.93496,-3.540132 0.24795,-0.243818 0.24795,-0.243818 -8.2068,-3.65605 -8.2068,-3.65605 0.10503,-0.32 0.10503,-0.32 7.21382,-3.21111 7.21382,-3.211109 1.00806,-0.414482 1.00805,-0.414481 2.35195,1.029418 2.35194,1.029418 1.6,0.714242 1.6,0.714242 4.48,2.007277 4.48,2.007276 0.11459,0.09591 0.11458,0.09591 -1.23458,0.511809 -1.23459,0.51181 -7.29638,3.234557 -7.29638,3.234557 0.25638,0.254344 0.25638,0.254343 8.27965,3.665559 8.27964,3.665559 -0.68667,0.367498 -0.68668,0.367499 -7.59297,3.363609 -7.59297,3.363609 -0.22473,0.222096 -0.22472,0.222097 3.90472,1.728683 3.90473,1.72869 4.32,1.92531 4.32,1.92531 0.23183,0.19311 0.23184,0.19311 -8.27583,3.67216 -8.27583,3.67217 -0.0584,0.29033 -0.0584,0.29033 8.10235,3.61558 8.10236,3.61557 0.58632,0.0141 0.58631,0.0141 26.93369,-11.96478 L 231.84,98.630431 265.05854,83.875216 298.27708,69.12 h 0.46146 0.46146 v 11.216813 11.216812 l -2,0.914616 -2,0.914616 -4.48,1.981791 -4.48,1.981791 -1.35897,0.614309 -1.35897,0.614309 -0.80103,0.304551 -0.80103,0.304551 V 110.55208 121.92 h 0.28347 0.28348 l 8.27652,-3.66549 8.27653,-3.66549 0.0842,11.24533 0.0842,11.24533 -0.24416,0.23293 -0.24416,0.23293 -8.32,3.6888 -8.32,3.68879 -0.0814,34.25844 -0.0814,34.25843 h 0.22684 0.22684 l 4.8146,-2.1299 4.8146,-2.1299 3.46869,-1.5501 3.46868,-1.5501 h 0.13132 0.13115 v 22.5339 22.5339 l -1.04,0.64116 -1.04,0.64115 -0.96,0.22792 -0.96,0.22793 -0.50078,0.43302 -0.50078,0.43302 -1.09922,0.34968 -1.09922,0.34968 -1.76,0.80854 -1.76,0.80855 -0.8,0.32286 -0.8,0.32286 -0.48,0.28495 -0.48,0.28495 -0.48,0.19301 -0.48,0.19301 -1.76,0.80635 -1.76,0.80635 -0.64,0.2613 -0.64,0.26129 -2.48702,1.13731 -2.48702,1.13731 h -0.4338 -0.4338 l -0.39836,0.48 -0.39836,0.48 h -0.44516 -0.44516 l -0.55566,0.29152 -0.55566,0.29151 -1.92,0.86299 -1.92,0.86298 -1.6,0.74051 -1.6,0.74052 -3.84,1.66377 -3.84,1.66377 -0.64,0.24699 -0.64,0.24699 -1.84,0.83423 -1.84,0.83422 -1.84,0.83422 -1.84,0.83423 -0.8,0.32286 -0.8,0.32286 -0.48,0.28495 -0.48,0.28495 -0.48,0.18698 -0.48,0.18698 -0.64,0.25676 -0.64,0.25676 -1.92,0.87562 -1.92,0.87562 -0.8,0.31569 -0.8,0.31569 -0.48,0.28495 -0.48,0.28495 -0.48,0.18698 -0.48,0.18698 -0.64,0.25676 -0.64,0.25676 -1.92,0.86092 -1.92,0.86092 -1.76,0.80271 -1.76,0.8027 -0.55566,0.2906 -0.55566,0.2906 h -0.44516 -0.44516 l -0.39836,0.48 -0.39836,0.48 h -0.45417 -0.45416 l -2.14665,0.98702 -2.14666,0.98702 -1.28,0.56762 -1.28,0.56762 -2.08,0.89034 -2.08,0.89034 -1.44,0.62089 -1.44,0.6209 -0.48,0.29616 -0.48,0.29616 -0.48,0.18698 -0.48,0.18698 -0.64,0.25676 -0.64,0.25676 -1.92,0.87016 -1.92,0.87015 -0.55566,0.28407 -0.55566,0.28407 h -0.37914 -0.37915 l -0.50519,0.42314 -0.5052,0.42314 -1.36458,0.42959 -1.36458,0.42959 -0.3546,0.42727 -0.3546,0.42727 h -0.44516 -0.44516 l -0.55566,0.29152 -0.55566,0.29151 -1.76,0.80684 -1.76,0.80684 -1.1744,0.35801 -1.17441,0.35802 -0.38477,0.46363 -0.38478,0.46363 h -0.44516 -0.44516 l -0.55566,0.29152 -0.55566,0.29151 -1.76,0.78593 -1.76,0.78593 -1.47505,0.68255 -1.47505,0.68256 h -0.1996 -0.1996 l -4.40535,1.95645 -4.40535,1.95645 -4.90248,2.20355 -4.90248,2.20355 z m -0.29752,-45.45118 0.56,0.0364 V 244.7093 221.89863 l 4.24,-1.87753 4.24,-1.87754 4.139,-1.8718 4.13899,-1.8718 h 0.26101 0.261 v 22.74156 22.74157 l 0.56,-0.18155 0.56,-0.18154 8.16,-3.64462 8.16,-3.64462 0.0809,-56.89851 0.0809,-56.89852 -0.24089,-0.22824 -0.24088,-0.22824 -2.72,1.21705 -2.72,1.21704 -4.48,1.98753 -4.48,1.98753 -1.28,0.56424 -1.28,0.56425 -4.32,1.92972 -4.32,1.92972 -4.41758,1.96281 -4.41759,1.96281 -2.62241,-1.17126 -2.62242,-1.17127 -1.28,-0.5656 -1.28,-0.56559 -4.72765,-2.11313 -4.72764,-2.11314 H 142.87238 142.72 v 57.21998 57.21999 l 8.24,3.70358 8.24,3.70358 z M 160.63548,198.72 H 160.32 l 0.004,-11.28 0.004,-11.28 8.32434,-3.68 8.32434,-3.68 0.31574,-0.10802 0.31574,-0.10803 -0.0841,11.41934 -0.0841,11.41934 -8.24452,3.64869 -8.24452,3.64868 z m -35.59548,53.40685 0.4,0.0332 v -11.46296 -11.46296 l -1.52,-0.67446 -1.52,-0.67446 -3.36,-1.4875 -3.36,-1.4875 -1.6,-0.71973 -1.6,-0.71973 -2.1514,-0.93535 -2.15139,-0.93535 -0.009,-11.28 -0.009,-11.28 h 0.10562 0.10561 l 8.26185,3.68 8.26184,3.68 h 0.27254 0.27254 l -0.008,-11.44 -0.008,-11.44 -1.19175,-0.53642 -1.19174,-0.53641 -3.36,-1.46986 -3.36,-1.46985 -0.48,-0.2643 -0.48,-0.2643 -3.6,-1.5351 -3.6,-1.53509 v -11.3022 -11.3022 l 2.48,1.06672 2.48,1.06672 2.96,1.32115 2.96,1.32114 2.88044,1.28 2.88044,1.28 h 0.3236 0.3236 l -0.084,-11.43784 -0.084,-11.43785 -17.09362,-7.60215 -17.093628,-7.60216 H 90.666176 90.24 v 56.97488 56.97489 l 0.88,0.50265 0.88,0.50265 16.32,7.28931 16.32,7.28931 z M 214,243.806 l 1.52,-0.65125 15.52,-6.89629 15.52,-6.89629 0.4,-0.32027 0.4,-0.32026 V 217.56082 206.4 h -0.43233 -0.43234 l -8.12766,3.64004 -8.12767,3.64004 -0.24,-0.13892 -0.24,-0.13893 v -34.02076 -34.02076 l 8.4,-3.72663 8.4,-3.72664 0.24,0.006 0.24,0.006 V 172 206.08 h 0.242 0.24199 l 8.47801,-3.77481 8.478,-3.77481 0.0814,-34.30519 0.0814,-34.30519 h -0.16006 -0.16006 L 256,133.6 l -8.32276,3.68 H 247.51862 247.36 v -11.2 -11.2 h -0.32472 -0.32473 l -4.39527,1.95224 -4.39528,1.95225 -1.6,0.72639 -1.6,0.72638 -2.72,1.20044 -2.72,1.20044 -1.92,0.86362 -1.92,0.86363 -6.47765,2.8573 -6.47766,2.85731 -0.002,57.18863 -0.002,57.18863 z"
         id="path60" />
      <path
         style="display:inline;fill:#b1514c"
         d="m 160.05752,312.9442 -0.21752,-0.0158 -2.58838,-1.1842 -2.58837,-1.1842 -1.41163,-0.60769 -1.41162,-0.60768 -3.2,-1.4151 -3.2,-1.41509 -1.28,-0.58483 -1.28,-0.58482 -2.72,-1.19377 -2.72,-1.19376 -1.6,-0.72262 -1.6,-0.72262 -4.16,-1.82675 -4.16,-1.82675 -1.28,-0.58648 -1.28,-0.58648 L 120,295.2 l -3.36,-1.48556 -1.28,-0.58331 -1.28,-0.5833 -4.16,-1.82465 -4.16,-1.82466 -1.28,-0.58648 -1.28,-0.58648 -3.36,-1.48556 -3.36,-1.48556 -1.28,-0.58483 -1.28,-0.58482 -2.72,-1.19367 -2.72,-1.19366 -1.28,-0.55619 -1.28,-0.5562 -4.48,-1.9962 -4.48,-1.9962 -1.28,-0.58355 -1.28,-0.58356 -3.36,-1.47546 -3.36,-1.47547 -0.64,-0.293 -0.64,-0.29301 -5.12,-2.25976 -5.12,-2.25975 -0.96,-0.45994 -0.96,-0.45993 -3.36,-1.4673 -3.36,-1.46731 -0.64,-0.29463 -0.64,-0.29463 -3.36,-1.47547 -3.36,-1.47546 -1.28,-0.58356 -1.28,-0.58355 -4.32,-1.91841 -4.32,-1.91841 -3.44,-1.51634 -3.44,-1.51634 V 228.91891 206.4 h 0.224799 0.224799 l 7.913116,3.52 7.913116,3.52 h 0.339953 0.339953 l 0.08213,-22.67499 0.08213,-22.67498 8.396926,3.71498 8.396926,3.71499 0.0031,22.57884 0.0031,22.57884 0.4,0.50094 0.4,0.50094 8.16,3.59772 8.16,3.59773 0.4,0.15673 0.4,0.15673 v -57.28 -57.28 l -0.4,-0.16791 -0.4,-0.16791 -8.283534,-3.6983 -8.283533,-3.69831 -0.276467,0.17087 -0.276466,0.17086 v 22.52297 22.52296 l -2.16,-0.90721 -2.16,-0.90722 -1.92,-0.85771 -1.92,-0.85771 -1.6,-0.72518 -1.6,-0.72518 -2.8,-1.23818 -2.8,-1.23819 V 121.99675 99.166375 l -2,-0.911114 -2,-0.911114 -4.48,-1.986319 -4.48,-1.98632 -2.08,-0.936083 -2.08,-0.936083 0.08803,-11.189671 L 21.456108,69.12 h 0.110838 0.110837 l 6.201131,2.744918 6.20113,2.744918 4.16,1.866758 4.16,1.866758 48.64,21.596878 48.639996,21.59688 4.48,1.91898 4.48,1.91899 5.4285,2.43246 5.4285,2.43246 h 0.53728 0.53727 l 8.27423,-3.64492 8.27422,-3.64492 L 237.79913,96.035078 298.47823,69.12 h 0.3609 0.36091 v 11.216813 11.216812 l -2,0.914616 -2,0.914616 -4.48,1.981791 -4.48,1.981791 -1.35897,0.614309 -1.35897,0.614309 -0.80103,0.304551 -0.80103,0.304551 V 110.55208 121.92 h 0.28347 0.28348 l 8.27652,-3.66549 8.27653,-3.66549 0.0842,11.24533 0.0842,11.24533 -0.24416,0.23293 -0.24416,0.23293 -8.32,3.6888 -8.32,3.68879 -0.0814,34.25844 -0.0814,34.25843 h 0.22684 0.22684 l 4.8146,-2.1299 4.8146,-2.1299 3.46869,-1.5501 3.46868,-1.5501 h 0.13132 0.13111 v 22.5339 22.5339 l -1.04,0.64116 -1.04,0.64115 -0.96,0.22792 -0.96,0.22793 -0.50078,0.43302 -0.50078,0.43302 -1.09922,0.34968 -1.09922,0.34968 -1.76,0.80854 -1.76,0.80855 -0.8,0.32286 -0.8,0.32286 -0.48,0.28495 -0.48,0.28495 -0.48,0.19301 -0.48,0.19301 -1.76,0.80635 -1.76,0.80635 -0.64,0.2613 -0.64,0.26129 -2.48702,1.13731 -2.48702,1.13731 h -0.4338 -0.4338 l -0.39836,0.48 -0.39836,0.48 h -0.44516 -0.44516 l -0.55566,0.29152 -0.55566,0.29151 -1.92,0.86299 -1.92,0.86298 -1.6,0.74051 -1.6,0.74052 -3.84,1.66377 -3.84,1.66377 -0.64,0.24699 -0.64,0.24699 -1.84,0.83423 -1.84,0.83422 -1.84,0.83422 -1.84,0.83423 -0.8,0.32286 -0.8,0.32286 -0.48,0.28495 -0.48,0.28495 -0.48,0.18698 -0.48,0.18698 -0.64,0.25676 -0.64,0.25676 -1.92,0.87562 -1.92,0.87562 -0.8,0.31569 -0.8,0.31569 -0.48,0.28495 -0.48,0.28495 -0.48,0.18698 -0.48,0.18698 -0.64,0.25676 -0.64,0.25676 -1.92,0.86092 -1.92,0.86092 -1.76,0.80271 -1.76,0.8027 -0.55566,0.2906 -0.55566,0.2906 h -0.44516 -0.44516 l -0.39836,0.48 -0.39836,0.48 h -0.45417 -0.45416 l -2.14665,0.98702 -2.14666,0.98702 -1.28,0.56762 -1.28,0.56762 -2.08,0.89034 -2.08,0.89034 -1.44,0.62089 -1.44,0.6209 -0.48,0.29616 -0.48,0.29616 -0.48,0.18698 -0.48,0.18698 -0.64,0.25676 -0.64,0.25676 -1.92,0.87016 -1.92,0.87015 -0.55566,0.28407 -0.55566,0.28407 h -0.37914 -0.37915 l -0.50519,0.42314 -0.5052,0.42314 -1.36458,0.42959 -1.36458,0.42959 -0.3546,0.42727 -0.3546,0.42727 h -0.44516 -0.44516 l -0.55566,0.29152 -0.55566,0.29151 -1.76,0.80684 -1.76,0.80684 -1.1744,0.35801 -1.17441,0.35802 -0.38477,0.46363 -0.38478,0.46363 h -0.44516 -0.44516 l -0.55566,0.29152 -0.55566,0.29151 -1.76,0.78593 -1.76,0.78593 -1.47505,0.68255 -1.47505,0.68256 h -0.1996 -0.1996 l -4.40535,1.95645 -4.40535,1.95645 -4.90248,2.20355 -4.90248,2.20355 z m -0.29752,-45.45116 0.56,0.027 v -22.81066 -22.81067 l 4.24,-1.87753 4.24,-1.87754 4.139,-1.8718 4.13899,-1.8718 h 0.26101 0.261 v 22.74156 22.74157 l 0.56,-0.18155 0.56,-0.18154 8.16,-3.64462 8.16,-3.64462 0.0809,-56.89851 0.0809,-56.89852 -0.24089,-0.22824 -0.24088,-0.22824 -2.72,1.21705 -2.72,1.21704 -4.48,1.98753 -4.48,1.98753 -1.28,0.56424 -1.28,0.56425 -4.32,1.92972 -4.32,1.92972 -4.42016,1.96397 -4.42016,1.96396 -4.21984,-1.89833 -4.21984,-1.89834 -4.39528,-1.95282 -4.39527,-1.95281 h -0.16473 -0.16472 v 57.22998 57.22997 l 8.24,3.70307 8.24,3.70306 z M 160.63548,198.72 H 160.32 l 0.004,-11.28 0.004,-11.28 8.32434,-3.68 8.32434,-3.68 0.31574,-0.10802 0.31574,-0.10803 -0.0841,11.41934 -0.0841,11.41934 -8.24452,3.64869 -8.24452,3.64868 z m -35.59548,53.41593 0.4,0.0241 v -11.45097 -11.45097 l -1.84,-0.85224 -1.84,-0.85223 -4.48,-1.96906 -4.48,-1.96905 -2.00085,-0.92774 -2.00086,-0.92774 H 108.47915 108.16 v -11.35208 -11.35208 l 0.72,0.28261 0.72,0.28261 7.62686,3.38947 7.62687,3.38947 h 0.29313 0.29314 v -11.48059 -11.4806 l -1.68,-0.70918 -1.68,-0.70919 -4.32,-1.93056 -4.32,-1.93056 -1.9228,-0.87359 -1.9228,-0.8736 -0.7172,-0.22763 -0.7172,-0.22763 v -11.32044 -11.32044 l 1.52,0.66146 1.52,0.66147 1.28,0.57002 1.28,0.57003 3.36,1.50486 3.36,1.50486 2.20401,0.92566 2.20401,0.92565 h 0.27599 0.27599 l -0.004,-11.44 -0.004,-11.44 -17.35556,-7.7111 -17.35556,-7.7111 -0.24,0.12998 -0.24,0.12999 0.0049,56.86112 0.0049,56.86111 0.2351,0.33795 0.2351,0.33794 16.96,7.55798 16.96,7.55798 z M 214,243.806 l 1.52,-0.65125 15.52,-6.89629 15.52,-6.89629 0.4,-0.32027 0.4,-0.32026 V 217.56082 206.4 h -0.43233 -0.43234 l -8.12766,3.64004 -8.12767,3.64004 -0.24,-0.13892 -0.24,-0.13893 v -34.02076 -34.02076 l 8.4,-3.72663 8.4,-3.72664 0.24,0.006 0.24,0.006 V 172 206.08 h 0.242 0.24199 l 8.47801,-3.77481 8.478,-3.77481 0.0814,-34.30519 0.0814,-34.30519 h -0.16006 -0.16006 L 256,133.6 l -8.32276,3.68 H 247.51862 247.36 v -11.2 -11.2 h -0.32472 -0.32473 l -4.39527,1.95224 -4.39528,1.95225 -1.6,0.72639 -1.6,0.72638 -2.72,1.20044 -2.72,1.20044 -1.92,0.86362 -1.92,0.86363 -6.47765,2.8573 -6.47766,2.85731 -0.002,57.18863 -0.002,57.18863 z"
         id="path59" />
      <path
         style="display:inline;fill:#7c3a3a"
         d="M 160.51972,312.64 H 160.32 v -45.24082 -45.24082 l 0.4,-0.29877 0.4,-0.29877 2.24,-0.98616 2.24,-0.98617 4.48,-1.99678 4.48,-1.99678 1.34244,-0.59747 1.34245,-0.59746 h 0.17755 0.17756 v 22.72 22.72 h 0.21448 0.21448 l 2.10552,-0.94987 2.10552,-0.94988 6.4,-2.84082 6.4,-2.84082 0.0821,-56.7693 0.0821,-56.76931 -0.14806,-0.38954 -0.14807,-0.38955 -1.21405,0.50269 -1.21406,0.5027 -1.28,0.57363 -1.28,0.57363 -4.48,1.98604 -4.48,1.98603 -4.16,1.85437 -4.16,1.85437 -4.48,1.98603 -4.48,1.98604 -1.34244,0.60678 -1.34245,0.60678 H 160.65756 160.32 v -11.14073 -11.14073 l 1.2,-0.57607 1.2,-0.57606 8.32,-3.67045 8.32,-3.67045 2.4,-1.06435 2.4,-1.06436 57.34317,-25.468399 57.34317,-25.468401 0.0968,-7.1e-5 0.0968,-7e-5 -0.0755,11.248869 -0.0755,11.248869 -0.0845,0.06802 -0.0845,0.06802 -5.92,2.638126 -5.92,2.638126 -2.4,1.070013 -2.4,1.070013 -0.084,11.375045 -0.084,11.37504 h 0.36358 0.36358 l 7.8925,-3.52 7.89249,-3.52 0.30797,-10e-6 0.30796,-1e-5 -0.072,11.24533 -0.072,11.24533 -0.088,0.0771 -0.088,0.0771 -6.88,3.03703 -6.88,3.03703 -1.52,0.66251 -1.52,0.66251 v 34.258 34.25799 h 0.27656 0.27656 l 7.94139,-3.53932 7.94138,-3.53931 0.26641,-0.0607 0.2664,-0.0607 -0.0106,22.38174 -0.0106,22.38173 -0.46097,0.50937 -0.46097,0.50937 -1.21276,0.41644 -1.21275,0.41645 -1.76,0.82921 -1.76,0.82922 -0.8,0.30032 -0.8,0.30032 -0.48,0.28495 -0.48,0.28495 -0.48,0.18698 -0.48,0.18698 -0.64,0.26542 -0.64,0.26543 -2.455,1.14556 -2.455,1.14556 h -0.48214 -0.48215 l -0.43169,0.4317 -0.4317,0.4317 -1.26957,0.41899 -1.26957,0.419 -1.40925,0.7493 -1.40925,0.74931 h -0.55316 -0.55316 l -0.39836,0.48 -0.39836,0.48 h -0.44516 -0.44516 l -0.55566,0.28407 -0.55566,0.28407 -1.92,0.87685 -1.92,0.87684 -1.6,0.73953 -1.6,0.73952 -1.76,0.78774 -1.76,0.78773 -1.28,0.54349 -1.28,0.54348 -1.44,0.63716 -1.44,0.63716 -0.8,0.32826 -0.8,0.32827 -0.48,0.28495 -0.48,0.28495 -0.48,0.18698 -0.48,0.18698 -0.8,0.32807 -0.8,0.32807 -0.48,0.28495 -0.48,0.28495 -0.48,0.18698 -0.48,0.18698 -0.64,0.24817 -0.64,0.24817 -0.96,0.3999 -0.96,0.3999 -0.48,0.28495 -0.48,0.28495 -0.48,0.18698 -0.48,0.18698 -0.8,0.32807 -0.8,0.32807 -0.48,0.28495 -0.48,0.28495 -0.48,0.18698 -0.48,0.18698 -0.64,0.25012 -0.64,0.25012 -1.81986,0.84087 L 234.60029,280 h -0.19996 -0.19996 l -1.82019,0.81138 -1.82018,0.81139 -1.76,0.82376 -1.76,0.82377 -0.8,0.32193 -0.8,0.32194 -0.48,0.28495 -0.48,0.28495 -0.48,0.18698 -0.48,0.18698 -0.64,0.25676 -0.64,0.25676 -1.92,0.87562 -1.92,0.87562 -0.64,0.24438 -0.64,0.24438 -1.92,0.86092 -1.92,0.86092 -1.6,0.73239 -1.6,0.73239 -1.92,0.88231 -1.92,0.88231 -0.8,0.31569 -0.8,0.31569 -0.48,0.28495 -0.48,0.28495 -0.48,0.18698 -0.48,0.18698 -0.8,0.33585 -0.8,0.33585 -0.96,0.40596 -0.96,0.40596 -2.40864,1.14918 -2.40863,1.14917 h -0.25118 -0.25118 l -1.82019,0.83152 -1.82018,0.83153 -1.76,0.79487 -1.76,0.79487 -0.64,0.26459 -0.64,0.26459 -0.48,0.18698 -0.48,0.18698 -0.48,0.28495 -0.48,0.28495 -0.96,0.3999 -0.96,0.3999 -0.64,0.24837 -0.64,0.24836 -1.44,0.63308 -1.44,0.63308 -1.76,0.79437 -1.76,0.79437 -2.72,1.20264 -2.72,1.20264 -1.28,0.55746 -1.28,0.55746 -2.60028,1.16127 -2.60027,1.16127 z m 52.23178,-68.21333 0.27149,-0.10667 17.16851,-7.64091 17.1685,-7.6409 v -11.42947 -11.42946 l 8.6327,-3.80963 8.6327,-3.80963 0.007,-34.32 0.007,-34.32 h -0.2248 -0.2248 l -7.93878,3.53142 -7.93879,3.53142 -0.47642,0.18282 -0.47641,0.18281 V 126.11424 114.88 h -0.35972 -0.35973 l -2.60027,1.16137 -2.60028,1.16137 -1.6,0.72907 -1.6,0.72908 -8.48,3.73912 -8.48,3.73913 -1.92,0.87372 -1.92,0.87372 -2.47965,1.09671 -2.47965,1.09671 -3.5e-4,57.22667 -3.5e-4,57.22666 z m 25.72706,-34.46958 -8.40143,3.74582 0.0814,-34.26395 0.0814,-34.26395 8.16,-3.62065 8.16,-3.62065 0.24145,-0.007 0.24145,-0.007 -0.0814,34.14563 -0.0815,34.14564 z M 160.59395,198.72 h -0.28214 l 0.0841,-11.27429 0.0841,-11.27429 8.45778,-3.76571 8.45778,-3.76571 h 0.10222 0.10222 v 11.30864 11.30863 l -0.88,0.4082 -0.88,0.4082 -7.48195,3.32316 -7.48195,3.32317 z"
         id="path58" />
    </g>
  </g>
</svg>
